<svg width="24" height="24" viewBox="0 0 24 24" fill="none" xmlns="http://www.w3.org/2000/svg">
<rect width="24" height="24" rx="2" fill="#C4C4C4"/>
<path d="M11.6844 12.0027C11.5281 11.5652 11.5312 10.7203 11.6219 10.7203C11.8844 10.7203 11.8594 11.7293 11.6844 12.0027ZM11.6313 13.2934C11.3906 13.8457 11.0906 14.4773 10.7438 15.0078C11.3156 14.8164 11.9625 14.5375 12.7094 14.409C12.3125 14.1465 11.9313 13.7691 11.6313 13.2934ZM8.69063 16.7059C8.69063 16.7277 9.10313 16.5582 9.78125 15.6066C9.57188 15.7789 8.87188 16.2766 8.69063 16.7059ZM13.75 9.375H18V18.3438C18 18.7074 17.6656 19 17.25 19H6.75C6.33437 19 6 18.7074 6 18.3438V5.65625C6 5.29258 6.33437 5 6.75 5H13V8.71875C13 9.07969 13.3375 9.375 13.75 9.375ZM13.5 14.0727C12.875 13.7391 12.4594 13.2797 12.1656 12.6016C12.3063 12.0957 12.5281 11.3273 12.3594 10.8461C12.2125 10.0422 11.0344 10.1215 10.8656 10.6602C10.7094 11.1605 10.8531 11.866 11.1188 12.7656C10.7563 13.5203 10.2219 14.532 9.84375 15.1117C9.84063 15.1117 9.84063 15.1145 9.8375 15.1145C8.99063 15.4945 7.5375 16.3312 8.13438 16.9738C8.30938 17.1625 8.63438 17.2473 8.80625 17.2473C9.36563 17.2473 9.92188 16.7551 10.7156 15.5574C11.5219 15.325 12.4062 15.0352 13.1844 14.923C13.8625 15.2457 14.6562 15.4562 15.1844 15.4562C16.0969 15.4562 16.1594 14.5812 15.8 14.2695C15.3656 13.8977 14.1031 14.0043 13.5 14.0727ZM17.7813 7.87109L14.7188 5.19141C14.5781 5.06836 14.3875 5 14.1875 5H14V8.5H18V8.3332C18 8.16094 17.9219 7.99414 17.7813 7.87109ZM15.4656 14.852C15.5938 14.7781 15.3875 14.5266 14.1281 14.6059C15.2875 15.0379 15.4656 14.852 15.4656 14.852Z" fill="#F2F2F2"/>
</svg>
