<svg width="32" height="24" viewBox="0 0 32 24" fill="none" xmlns="http://www.w3.org/2000/svg">
<path d="M29.3664 2.08855C27.6135 0.696182 25.1423 0 21.9528 0H2.05997C1.661 0 1.27837 0.158583 0.996259 0.440861C0.714147 0.72314 0.555658 1.10599 0.555658 1.50519C0.555658 1.9044 0.714147 2.28725 0.996259 2.56953C1.27837 2.85181 1.661 3.01039 2.05997 3.01039H11.509C11.6367 3.04539 11.7474 3.12554 11.8205 3.23598C11.8937 3.34642 11.9243 3.47965 11.9067 3.61096C11.8891 3.74227 11.8245 3.86274 11.7249 3.95003C11.6253 4.03732 11.4975 4.0855 11.3651 4.08563H4.21494C3.74935 4.08563 3.30283 4.27069 2.97361 4.60011C2.64439 4.92952 2.45943 5.37631 2.45943 5.84217C2.45943 6.06991 2.50426 6.29542 2.59137 6.50583C2.67847 6.71623 2.80613 6.90741 2.96708 7.06845C3.29211 7.39367 3.73296 7.57639 4.19263 7.57639H10.7058C10.8789 7.60491 11.0376 7.69014 11.157 7.81869C11.2764 7.94724 11.3498 8.11184 11.3656 8.28664C11.3814 8.46144 11.3388 8.63654 11.2444 8.78446C11.1499 8.93238 11.0091 9.04474 10.844 9.10391H1.77782C1.54435 9.10391 1.31317 9.14992 1.09748 9.23931C0.881782 9.32871 0.685796 9.45974 0.520711 9.62492C0.355625 9.79011 0.224672 9.98621 0.135328 10.202C0.0459846 10.4179 0 10.6492 0 10.8828H0C0 11.3546 0.187305 11.807 0.520711 12.1406C0.854116 12.4742 1.30631 12.6616 1.77782 12.6616H8.99705C9.09431 12.6616 9.18759 12.7003 9.25636 12.7691C9.32514 12.8379 9.36377 12.9313 9.36377 13.0286C9.36377 13.1259 9.32514 13.2192 9.25636 13.288C9.18759 13.3569 9.09431 13.3955 8.99705 13.3955H5.33489C5.10137 13.3954 4.87011 13.4414 4.65433 13.5307C4.43855 13.6201 4.24248 13.7511 4.07732 13.9163C3.91216 14.0815 3.78114 14.2776 3.69175 14.4935C3.60236 14.7093 3.55636 14.9407 3.55636 15.1744C3.55636 15.408 3.60236 15.6394 3.69175 15.8553C3.78114 16.0712 3.91216 16.2673 4.07732 16.4325C4.24248 16.5977 4.43855 16.7287 4.65433 16.818C4.87011 16.9074 5.10137 16.9533 5.33489 16.9532H7.93972L6.77154 22.7918C6.74384 22.9303 6.74722 23.0732 6.78141 23.2103C6.81561 23.3473 6.87979 23.475 6.9693 23.5842C7.05882 23.6934 7.17145 23.7814 7.29906 23.8417C7.42667 23.9021 7.56608 23.9334 7.70724 23.9333H13.8252C14.0461 23.9335 14.2602 23.8569 14.4309 23.7166C14.6016 23.5763 14.7182 23.381 14.7609 23.1642L15.7686 18.0508H19.9036C22.3177 18.0508 24.442 17.6293 26.2764 16.7862C28.1109 15.9431 29.5231 14.7579 30.513 13.2306C31.5038 11.7038 31.9995 9.93716 32 7.93072C32.0005 5.42494 31.1226 3.47755 29.3664 2.08855ZM22.9108 10.9922C22.2961 11.5511 21.4305 11.8303 20.3139 11.8298H18.6037C18.4093 11.8298 18.2172 11.7866 18.0415 11.7033C17.8658 11.62 17.7107 11.4987 17.5875 11.3481C17.4643 11.1976 17.376 11.0215 17.3291 10.8327C17.2822 10.6439 17.2777 10.447 17.3161 10.2562L17.9149 7.27823C17.9748 6.98044 18.1358 6.71256 18.3707 6.5201C18.6055 6.32763 18.8997 6.22246 19.2033 6.22243H20.8264C22.8307 6.22243 23.8331 7.03168 23.8336 8.65019C23.8336 9.65317 23.526 10.4339 22.9108 10.9922Z" fill="#42A5FF"/>
</svg>
